<svg width="775" height="443" viewBox="0 0 775 443" fill="none" xmlns="http://www.w3.org/2000/svg">
<path d="M766.927 221.5C766.927 278.557 726.399 331.775 657.471 371.179C588.769 410.454 493.324 435 387.464 435C281.603 435 186.158 410.454 117.456 371.179C48.5278 331.775 8 278.557 8 221.5C8 164.443 48.5278 111.225 117.456 71.8211C186.158 32.5463 281.603 8 387.464 8C493.324 8 588.769 32.5463 657.471 71.8211C726.399 111.225 766.927 164.443 766.927 221.5Z" stroke="#006735" stroke-width="16"/>
<path d="M178.232 110.938L179.524 295.628" stroke="#006735" stroke-width="40" stroke-linecap="round"/>
<path d="M257.854 65.6426C259.801 65.859 260.518 69.6937 261.409 71.0797C262.52 72.8081 263.645 75.6366 264.034 77.6786C264.76 81.4881 264.964 85.1005 264.964 89.0641" stroke="#006735" stroke-width="3" stroke-linecap="round"/>
<path d="M259.945 61.8779C262.245 61.8779 264.926 64.9479 266.637 66.2927C268.135 67.4697 269.628 69.0393 270.587 70.6842C271.41 72.0945 272.012 72.8252 272.074 74.5181C272.112 75.5259 272.436 76.844 272.818 77.7711C272.887 77.938 271.803 76.4123 271.656 75.6799" stroke="#006735" stroke-width="3" stroke-linecap="round"/>
<path d="M223.977 76.5168C224.167 74.9904 256.553 76.0985 262.036 76.0985" stroke="#006735" stroke-width="3" stroke-linecap="round"/>
<path d="M364.216 251.27C361.726 346.78 337.093 371.319 287.369 379.069C244.571 379.069 214.397 340.322 209.23 251.27C209.23 185.983 226.666 134.967 277.037 127.863C323.532 118.176 366.153 176.942 364.216 251.27Z" fill="#006735"/>
<path d="M307.371 255.024C306.708 295.123 300.141 305.426 286.887 308.679C275.479 308.679 267.436 292.412 266.059 255.024C266.059 227.613 270.706 206.195 284.133 203.212C296.527 199.145 307.887 223.818 307.371 255.024Z" fill="#FFFBF1"/>
<path d="M331.308 178.416C331.757 182.464 336.016 185.81 336.921 189.884C337.87 194.154 338.856 200.433 340.916 204.141C345.144 211.751 346.185 222.65 346.185 231.106" stroke="white" stroke-width="12" stroke-linecap="round"/>
<path d="M317.56 339.38C320.827 338.726 327.164 331.776 328.62 328.865C329.701 326.702 331.606 321.491 333.682 320.453" stroke="white" stroke-width="12" stroke-linecap="round"/>
<path d="M517.264 227.312C525.659 378.423 489.673 410.711 446.875 410.711C289.952 436.542 386.818 306.742 369.382 227.312C345.709 119.468 261.538 25.8308 428.793 44.5583C510.16 63.2857 505.64 148.528 517.264 227.312Z" fill="#006735"/>
<path d="M463.293 228.413C466.907 334.945 443.213 363.353 433.78 363.353C399.193 381.022 427.996 285.876 425.95 228.413C422.938 143.833 374.5 101.203 408.483 98.6379C463.293 94.5001 466.304 167.077 463.293 228.413Z" fill="#FFFBF1"/>
<path d="M428.185 60.7207C433.364 60.7207 437.32 62.7077 441.452 65.4627C444.291 67.3548 447.327 69.5167 449.739 71.929C451.235 73.4253 453.167 75.6644 454.912 76.7667C457.425 78.3541 458.318 81.873 461.163 83.1373C462.608 83.7794 463.872 85.5455 465.043 86.586C465.962 87.403 467.282 88.4178 468.036 89.388C469.033 90.6696 470.472 91.854 471.293 93.2918C473.207 96.6405 476.466 100.552 476.466 104.692" stroke="white" stroke-width="10" stroke-linecap="round"/>
<path d="M484.657 123.09C484.718 123.577 485.266 123.96 485.424 124.479C486.285 127.32 486.677 130.326 487.459 133.196C487.811 134.487 489.099 139.301 488.968 139.04" stroke="white" stroke-width="10" stroke-linecap="round"/>
<path d="M498.746 330.892C498.329 335.479 495.832 339.475 495.202 343.887C494.695 347.435 492.819 351.868 491.198 355.111C489.831 357.844 488.668 362.097 486.8 364.431C485.624 365.901 483.907 369.311 482.206 369.878" stroke="white" stroke-width="10" stroke-linecap="round"/>
<ellipse cx="564.405" cy="120.76" rx="49.0787" ry="49.7245" fill="#006735"/>
<circle cx="564.405" cy="121.406" r="12.9155" fill="white"/>
<path d="M581.946 93.1953C586.703 93.6709 592.965 102.366 594.478 106.739C596.254 111.869 599.143 115.973 599.143 121.519" stroke="white" stroke-width="10" stroke-linecap="round"/>
<ellipse cx="656.105" cy="288.66" rx="49.0787" ry="49.7245" fill="#006735"/>
<circle cx="656.105" cy="291.889" r="12.9155" fill="white"/>
<path d="M671.737 258.977C671.834 258.204 679.984 263.156 681.015 264.647C682.535 266.842 684.468 268.743 686.118 270.806C688.556 273.854 689.83 278.297 689.83 282.172" stroke="white" stroke-width="10" stroke-linecap="round"/>
<path d="M548.261 289.952L671.604 132.383" stroke="#006735" stroke-width="36" stroke-linecap="round"/>
<path d="M677.499 124.552C677.499 124.46 678.303 126.568 678.674 127.311C679.168 128.298 680.258 129.138 680.258 130.3C680.258 131.986 680.839 134.971 680.156 136.508C678.444 140.359 674.95 146.519 671.062 148.463" stroke="white" stroke-width="9" stroke-linecap="round"/>
<path d="M556.912 291.596C559.235 291.338 561.991 286.826 563.33 285.075C564.877 283.052 566.445 280.737 567.729 278.554C568.587 277.096 569.767 275.621 570.886 274.361C572.152 272.938 572.798 271.052 574.147 269.703" stroke="white" stroke-width="9" stroke-linecap="round"/>
<path d="M90.5761 163.977L106.019 147.679L123.567 130.832L143.076 114.744L164.4 100.724L188 90.7674L211.986 83.4617L235.682 78.7715L260.905 75.5704" stroke="#006735" stroke-width="45" stroke-linecap="round"/>
<path d="M80.9664 262.001L83.4945 273.365L88.3338 281.756L98.6326 293.409L110.446 303.295L126.417 311.081L140.93 314.788L150.546 315.951L159.909 313.832L169.583 309.148L176.924 302.23" stroke="#006735" stroke-width="40" stroke-linecap="round"/>
<path d="M186.511 193.849C186.511 202.793 185.693 211.807 186.191 220.763C186.373 224.04 187.152 227.003 187.152 230.375C187.152 233.586 186.511 243.198 186.511 239.987" stroke="white" stroke-width="9.5" stroke-linecap="round"/>
<path d="M186.191 259.853C186.162 259.626 185.97 259.411 185.87 259.212" stroke="white" stroke-width="9.5" stroke-linecap="round"/>
<path d="M249 63.184C252.282 63.184 256.624 62.4038 259.659 64.0568C262.351 65.5225 264.9 67.0091 267.033 69.468C270.129 73.0377 271 79.2459 271 84" stroke="white" stroke-width="9.5" stroke-linecap="round"/>
</svg>
